<?xml version="1.0" encoding="UTF-8" standalone="no"?>
<svg
   xmlns:dc="http://purl.org/dc/elements/1.1/"
   xmlns:cc="http://creativecommons.org/ns#"
   xmlns:rdf="http://www.w3.org/1999/02/22-rdf-syntax-ns#"
   xmlns:svg="http://www.w3.org/2000/svg"
   xmlns="http://www.w3.org/2000/svg"
   xmlns:xlink="http://www.w3.org/1999/xlink"
   id="svg6431"
   height="64"
   width="64"
   version="1.1">
  <metadata
     id="metadata14">
    <rdf:RDF>
      <cc:Work
         rdf:about="">
        <dc:format>image/svg+xml</dc:format>
        <dc:type
           rdf:resource="http://purl.org/dc/dcmitype/StillImage" />
        <dc:title></dc:title>
      </cc:Work>
    </rdf:RDF>
  </metadata>
  <defs
     id="defs6433">
    <symbol
       id="a" />
    <linearGradient
       id="linearGradient5250"
       y2="19"
       gradientUnits="userSpaceOnUse"
       y1="32"
       x2="32"
       x1="32">
      <stop
         id="stop5246"
         stop-color="#fff"
         offset="0" />
      <stop
         id="stop5248"
         stop-color="#fff"
         stop-opacity="0"
         offset="1" />
    </linearGradient>
    <linearGradient
       xlink:href="#linearGradient5250"
       id="linearGradient4162"
       gradientUnits="userSpaceOnUse"
       x1="32"
       y1="32"
       x2="32"
       y2="19" />
  </defs>
  <path
     style="fill:#729fcf;fill-rule:evenodd;stroke:#2e3436;stroke-width:2;stroke-linejoin:round"
     d="m 37,58 -10,0 0,-21 -21,0 0,-10 21,0 0,-21 10,0 0,21 21,0 0,10 -21,0 z"
     id="path4151" />
  <g
     transform="matrix(0.70711,-0.70711,0.70711,0.70711,-14.202,33.072)"
     id="g4153">
    <use
       x="0"
       y="0"
       width="100%"
       height="100%"
       xlink:href="#a"
       id="use4155" />
  </g>
  <path
     style="opacity:0.4;fill:none;stroke:#ffffff;stroke-width:2"
     d="m 8,35 0,-6 21,0 0,-21 6,0 0,21 21,0 0,6 -21,0 0,21 -6,0 0,-21 z"
     id="path4158" />
  <path
     style="opacity:0.3;fill:url(#linearGradient4162);fill-rule:evenodd"
     d="m 57,32 0,-4 -21,0 0,-21 -8,0 0,21 -21,0 0,4 z"
     id="path4160" />
</svg>
