<svg id="svg2" xmlns:rdf="http://www.w3.org/1999/02/22-rdf-syntax-ns#" xmlns="http://www.w3.org/2000/svg" viewBox="0 0 64.000001 64.000001" height="64" width="64" version="1.1" xmlns:cc="http://creativecommons.org/ns#" xmlns:xlink="http://www.w3.org/1999/xlink" xmlns:dc="http://purl.org/dc/elements/1.1/">
 <defs id="defs4">
  <linearGradient id="linearGradient4231">
   <stop id="stop4233" stop-color="#fff" offset="0"/>
   <stop id="stop4235" stop-color="#fff" stop-opacity="0" offset="1"/>
  </linearGradient>
  <linearGradient id="linearGradient4280" y2="32" xlink:href="#linearGradient4231" gradientUnits="userSpaceOnUse" x2="36.75" gradientTransform="translate(-12.717)" y1="32" x1="32"/>
  <linearGradient id="linearGradient4698" y2="6.4991" xlink:href="#linearGradient4231" gradientUnits="userSpaceOnUse" y1="31.115" gradientTransform="matrix(0 .67589 -.69299 0 54.182 10.372)" x2="31.995" x1="31.994"/>
 </defs>
 <path id="path4274" stroke-linejoin="round" d="m19.283 6c-3.6862-0.18084-6.5305 3.6729-6 7v38c-0.53385 3.3206 2.3134 7.1823 6 7 3.6862 0.18084 6.5305-3.6729 6-7v-14.945h8.1094v10.814c5.775-4.956 11.55-9.913 17.325-14.869-5.775-4.956-11.55-9.913-17.324-14.869v10.814h-8.1094v-14.945c0.53385-3.3206-2.3134-7.1823-6-7z" stroke="#333" stroke-width="2" fill="#729fcf"/>
 <path id="path4276" opacity=".4" stroke-linejoin="round" d="m19.283 8c-3.1084 0.15486-4.2545 3.9535-4 6.4609v35.078c-0.2561 2.4987 0.89068 6.3086 4 6.4609 3.1084-0.15486 4.2545-3.9535 4-6.4609v-14.836h11.496v9.1934c4.62-3.965 9.24-7.931 13.86-11.896-4.62-3.965-9.24-7.931-13.86-11.896v9.1934h-11.496v-14.836c0.22315-2.4984-0.85352-6.3163-4-6.4609z" stroke="#fff" stroke-width="2" fill="none"/>
 <path id="path4278" opacity=".3" d="m19.283 7v50c3.4195 0.04886 5.4091-3.8266 5-6.7305v-36.539c0.37545-2.9406-1.5299-6.7484-5-6.7305z" fill="url(#linearGradient4280)"/>
 <path id="path4690" opacity=".4" d="m49.678 31.997c-5.082-4.463-10.164-8.926-15.245-13.389-0.109 3.329-0.217 6.659-0.325 9.988-1.8916 0.90679-1.5924 3.7038-1.2252 5.4728 0.74934 1.1044 1.503 1.6754 1.1856 3.1795 0.0054 2.7118 0.01087 5.4236 0.0163 8.1353 5.1979-4.4623 10.396-8.9247 15.594-13.387z" fill="url(#linearGradient4698)"/>
</svg>
